<svg xmlns="http://www.w3.org/2000/svg" width="372.24" height="57.68" viewBox="0 0 372.24 57.68">
  <path id="title-policy" d="M4.48,0V-57.52h48a9.231,9.231,0,0,1,4.84,1.32,9.886,9.886,0,0,1,3.48,3.48,9.238,9.238,0,0,1,1.28,4.8v16.88a9.238,9.238,0,0,1-1.28,4.8,9.886,9.886,0,0,1-3.48,3.48,9.231,9.231,0,0,1-4.84,1.32H10.96V0Zm9.6-28h38.4a3.071,3.071,0,0,0,2.2-.88,2.873,2.873,0,0,0,.92-2.16V-47.92a3,3,0,0,0-.92-2.2,3,3,0,0,0-2.2-.92H14.08a3,3,0,0,0-2.2.92,3,3,0,0,0-.92,2.2v16.88a2.873,2.873,0,0,0,.92,2.16A3.071,3.071,0,0,0,14.08-28ZM85.2,0a9.451,9.451,0,0,1-4.84-1.28,9.471,9.471,0,0,1-3.48-3.48A9.451,9.451,0,0,1,75.6-9.6V-48a9.451,9.451,0,0,1,1.28-4.84,9.471,9.471,0,0,1,3.48-3.48A9.451,9.451,0,0,1,85.2-57.6h38.4a9.451,9.451,0,0,1,4.84,1.28,9.471,9.471,0,0,1,3.48,3.48A9.451,9.451,0,0,1,133.2-48V-9.6a9.451,9.451,0,0,1-1.28,4.84,9.471,9.471,0,0,1-3.48,3.48A9.451,9.451,0,0,1,123.6,0Zm0-6.48h38.4a3,3,0,0,0,2.2-.92,3,3,0,0,0,.92-2.2V-48a3,3,0,0,0-.92-2.2,3,3,0,0,0-2.2-.92H85.2a3,3,0,0,0-2.2.92,3,3,0,0,0-.92,2.2V-9.6A3,3,0,0,0,83-7.4,3,3,0,0,0,85.2-6.48ZM150.08,0V-57.68h6.48v51.2h51.12V0Zm71.04,0V-57.6h6.56V0Zm33.92,0a9.451,9.451,0,0,1-4.84-1.28,9.471,9.471,0,0,1-3.48-3.48,9.451,9.451,0,0,1-1.28-4.84V-48a9.451,9.451,0,0,1,1.28-4.84,9.471,9.471,0,0,1,3.48-3.48,9.451,9.451,0,0,1,4.84-1.28h47.84v6.48H255.04a3,3,0,0,0-2.2.92,3,3,0,0,0-.92,2.2V-9.6a3,3,0,0,0,.92,2.2,3,3,0,0,0,2.2.92h47.84V0Zm88.72,0V-21.68L317.28-57.6h7.44l22.32,28.16L369.12-57.6h7.6L350.24-21.68V0Z" transform="translate(-4.48 57.68)" fill="#fff"/>
</svg>
