<svg xmlns="http://www.w3.org/2000/svg" width="621.777" height="71.7" viewBox="0 0 621.777 71.7">
  <path id="title-web-tips" d="M114.7-71.7a2.9,2.9,0,0,0-2.9,2.9v25.9l-.2.3L87.3-7.9,64-41.7l-.3-.3V-68.8a2.9,2.9,0,0,0-2.9-2.9,2.9,2.9,0,0,0-2.9,2.9v25.9c-.1.1-.2.2-.2.3L33.4-7.9,10-41.7c-.1-.1-.1-.2-.2-.3V-68.8a2.9,2.9,0,0,0-2.9-2.9A2.9,2.9,0,0,0,4-68.8v26.7a5.943,5.943,0,0,0,1.4,3.8L31-1.2A3.132,3.132,0,0,0,33.4,0a3.3,3.3,0,0,0,2.4-1.2L60.5-36.6,85-1.2A2.935,2.935,0,0,0,87.3,0a2.98,2.98,0,0,0,2.4-1.2l26.5-38a5.489,5.489,0,0,0,1.4-3.7V-68.8A2.9,2.9,0,0,0,114.7-71.7Zm78.6,61.6a2.961,2.961,0,0,0,.1-4.1,2.871,2.871,0,0,0-4.1-.2L180-5.7H131.1V-32.2h49.2a2.818,2.818,0,0,0,2.8-2.9,2.818,2.818,0,0,0-2.8-2.9H131.1V-64.4H180l9.3,8.6a2.871,2.871,0,0,0,4.1-.2,2.839,2.839,0,0,0-.1-4l-9.4-8.7a5.437,5.437,0,0,0-3.9-1.5H128.2a2.9,2.9,0,0,0-2.9,2.9V-2.8A2.883,2.883,0,0,0,128.2,0H180a5.437,5.437,0,0,0,3.9-1.5Zm76.6-.1a5.6,5.6,0,0,0,1.8-4.2V-26.9a5.6,5.6,0,0,0-1.8-4.2l-8.1-7.5,7.2-6.7a5.911,5.911,0,0,0,1.9-4.3v-6.2a5.748,5.748,0,0,0-1.9-4.3l-9.3-8.6a5.785,5.785,0,0,0-3.9-1.5h-51a2.818,2.818,0,0,0-2.9,2.8V-2.9A2.9,2.9,0,0,0,204.8,0h51.8a5.851,5.851,0,0,0,4-1.5ZM255.8-64.5l9.3,8.6v6.3l-8.9,8.3H207.7V-64.5ZM207.7-5.8V-35.2h49.2l9.1,8.3v12.5l-9.4,8.6Zm70.2-35.9a2.9,2.9,0,0,0,2.9,2.9H312a2.9,2.9,0,0,0,2.9-2.9,2.9,2.9,0,0,0-2.9-2.9H280.8A2.9,2.9,0,0,0,277.9-41.7ZM355.1,0A2.9,2.9,0,0,0,358-2.9V-65.7h34.9a2.9,2.9,0,0,0,2.9-2.9,2.9,2.9,0,0,0-2.9-2.9H317.3a2.9,2.9,0,0,0-2.9,2.9,2.9,2.9,0,0,0,2.9,2.9h34.9V-2.9A2.9,2.9,0,0,0,355.1,0Zm76.3-5.8h-25a2.9,2.9,0,0,0-2.9,2.9A2.9,2.9,0,0,0,406.4,0h55.8a2.9,2.9,0,0,0,2.9-2.9,2.9,2.9,0,0,0-2.9-2.9h-25V-65.3h25a2.9,2.9,0,0,0,2.9-2.9,2.9,2.9,0,0,0-2.9-2.9H406.4a2.9,2.9,0,0,0-2.9,2.9,2.9,2.9,0,0,0,2.9,2.9h25ZM531.5-68.7a5.851,5.851,0,0,0-4-1.5H475.7a2.9,2.9,0,0,0-2.9,2.9V-2.8A2.818,2.818,0,0,0,475.7,0a2.818,2.818,0,0,0,2.9-2.8V-28.9h48.9a5.521,5.521,0,0,0,3.9-1.6l9.4-8.6a5.6,5.6,0,0,0,1.8-4.2V-55.8a5.6,5.6,0,0,0-1.8-4.2Zm5.4,12.9v12.5l-9.4,8.6H478.6V-64.4h48.9Zm77.7-14.1a5.946,5.946,0,0,0-4-1.6H565.5a5.946,5.946,0,0,0-4,1.6l-9.3,8.6a5.748,5.748,0,0,0-1.9,4.3v8.2a5.748,5.748,0,0,0,1.9,4.3l9.3,8.6a5.894,5.894,0,0,0,3.9,1.6h44.4l9.4,8.6v11.3l-9.4,8.6H565.4l-10.2-9.5a2.871,2.871,0,0,0-4.1.2,2.961,2.961,0,0,0,.1,4.1l10.3,9.5A6.318,6.318,0,0,0,565.4,0h44.4a5.851,5.851,0,0,0,4-1.5l9.3-8.7a5.748,5.748,0,0,0,1.9-4.3V-25.6a5.912,5.912,0,0,0-1.9-4.3l-9.3-8.7a5.851,5.851,0,0,0-4-1.5H565.4l-9.3-8.6V-57l9.3-8.7h45.3l10.2,9.5a2.871,2.871,0,0,0,4.1-.2,2.836,2.836,0,0,0-.1-4Z" transform="translate(-4 71.7)" fill="#fff"/>
</svg>
