<svg xmlns="http://www.w3.org/2000/svg" width="401.162" height="68.256" viewBox="0 0 401.162 68.256">
  <path id="title-price" d="M-144.24-65.952a5.617,5.617,0,0,0-3.84-1.44h-49.728a2.786,2.786,0,0,0-2.784,2.784v61.92A2.706,2.706,0,0,0-197.808,0a2.706,2.706,0,0,0,2.784-2.688V-27.744h46.944a5.3,5.3,0,0,0,3.744-1.536l9.024-8.256a5.374,5.374,0,0,0,1.728-4.032v-12a5.374,5.374,0,0,0-1.728-4.032Zm5.184,12.384v12l-9.024,8.256h-46.944V-61.824h46.944ZM-49.008-2.784l-2.784-2.784h-8.064L-70.8-27.84h7.008a5.219,5.219,0,0,0,3.744-1.44l9.024-8.256A5.975,5.975,0,0,0-49.3-41.664v-11.9A5.975,5.975,0,0,0-51.024-57.7l-9.024-8.256a5.219,5.219,0,0,0-3.744-1.44H-113.52A2.706,2.706,0,0,0-116.3-64.7v61.92A2.786,2.786,0,0,0-113.52,0a2.786,2.786,0,0,0,2.784-2.784V-27.84h33.792L-64.368-2.3a2.267,2.267,0,0,0,.576.864A5.553,5.553,0,0,0-60.048,0h8.256A2.786,2.786,0,0,0-49.008-2.784Zm-61.728-30.528V-61.92h46.944l8.928,8.352.1,11.9a.094.094,0,0,0-.1.1l-8.928,8.16v.1ZM-4.944-5.568h-24a2.786,2.786,0,0,0-2.784,2.784A2.786,2.786,0,0,0-28.944,0H24.624a2.786,2.786,0,0,0,2.784-2.784,2.786,2.786,0,0,0-2.784-2.784h-24v-57.12h24a2.786,2.786,0,0,0,2.784-2.784,2.786,2.786,0,0,0-2.784-2.784H-28.944a2.786,2.786,0,0,0-2.784,2.784,2.786,2.786,0,0,0,2.784,2.784h24ZM102.576,0a5.219,5.219,0,0,0,3.744-1.44l9.888-9.12A2.76,2.76,0,0,0,116.4-14.5a2.757,2.757,0,0,0-3.936-.192l-9.888,9.12H59.184L50.16-13.824V-53.568l9.024-8.352h43.392l9.888,9.12a2.753,2.753,0,0,0,3.936-.1,2.757,2.757,0,0,0-.192-3.936l-9.888-9.12a5.219,5.219,0,0,0-3.744-1.44H59.184a5.219,5.219,0,0,0-3.744,1.44L46.416-57.7a5.583,5.583,0,0,0-1.728,4.128v39.744A5.583,5.583,0,0,0,46.416-9.7L55.44-1.44A5.219,5.219,0,0,0,59.184,0Zm97.152-9.7a2.843,2.843,0,0,0,.1-3.936,2.757,2.757,0,0,0-3.936-.192L186.96-5.472H140.016v-25.44h47.232a2.706,2.706,0,0,0,2.688-2.784,2.706,2.706,0,0,0-2.688-2.784H140.016V-61.824H186.96l8.928,8.256a2.757,2.757,0,0,0,3.936-.192,2.725,2.725,0,0,0-.1-3.84L190.7-65.952a5.219,5.219,0,0,0-3.744-1.44H137.232a2.786,2.786,0,0,0-2.784,2.784v61.92A2.768,2.768,0,0,0,137.232,0H186.96A5.219,5.219,0,0,0,190.7-1.44Z" transform="translate(200.592 68.256)" fill="#fff"/>
</svg>
